<svg width="10" height="10" viewBox="0 0 10 10" fill="none" xmlns="http://www.w3.org/2000/svg">
<path d="M4.68994 7.71354H5.60661V4.96354H4.68994V7.71354ZM5.14828 4.04687C5.27814 4.04687 5.38707 4.00287 5.47507 3.91487C5.56307 3.82687 5.60691 3.71809 5.60661 3.58854C5.6063 3.45898 5.5623 3.35021 5.47461 3.26221C5.38691 3.17421 5.27814 3.13021 5.14828 3.13021C5.01841 3.13021 4.90964 3.17421 4.82194 3.26221C4.73425 3.35021 4.69025 3.45898 4.68994 3.58854C4.68964 3.71809 4.73364 3.82703 4.82194 3.91533C4.91025 4.00364 5.01903 4.04748 5.14828 4.04687ZM5.14828 10.0052C4.51425 10.0052 3.91841 9.88482 3.36078 9.64404C2.80314 9.40326 2.31807 9.07678 1.90557 8.66458C1.49307 8.25239 1.16658 7.76732 0.926109 7.20937C0.685636 6.65143 0.565248 6.05559 0.564942 5.42187C0.564636 4.78815 0.685025 4.19232 0.926109 3.63437C1.16719 3.07643 1.49368 2.59136 1.90557 2.17916C2.31746 1.76697 2.80253 1.44048 3.36078 1.19971C3.91903 0.958928 4.51486 0.838539 5.14828 0.838539C5.78169 0.838539 6.37753 0.958928 6.93578 1.19971C7.49403 1.44048 7.9791 1.76697 8.39098 2.17916C8.80287 2.59136 9.12951 3.07643 9.3709 3.63437C9.61229 4.19232 9.73253 4.78815 9.73161 5.42187C9.73069 6.05559 9.6103 6.65143 9.37044 7.20937C9.13058 7.76732 8.8041 8.25239 8.39098 8.66458C7.97787 9.07678 7.4928 9.40341 6.93578 9.6445C6.37875 9.88558 5.78291 10.0058 5.14828 10.0052Z" fill="black"/>
</svg>
