<svg width="30" height="30" viewBox="0 0 30 30" fill="none" xmlns="http://www.w3.org/2000/svg">
<path d="M19.6912 3.75C20.4372 3.75 21.1525 4.04632 21.68 4.57376C22.2074 5.10121 22.5037 5.81658 22.5037 6.5625L22.5025 7.50375H23.44C24.5175 7.50441 25.5507 7.93256 26.3128 8.69421C27.0749 9.45586 27.5037 10.4888 27.505 11.5663L27.5088 19.0625C27.5088 19.808 27.2128 20.523 26.6859 21.0504C26.159 21.5777 25.4442 21.8743 24.6988 21.875H22.5V23.4375C22.5 24.1834 22.2037 24.8988 21.6762 25.4262C21.1488 25.9537 20.4334 26.25 19.6875 26.25H10.3125C9.56658 26.25 8.85121 25.9537 8.32376 25.4262C7.79632 24.8988 7.5 24.1834 7.5 23.4375V21.875H5.3125C4.56658 21.875 3.85121 21.5787 3.32376 21.0512C2.79632 20.5238 2.5 19.8084 2.5 19.0625V11.5675C2.5 10.4901 2.92801 9.45675 3.68988 8.69488C4.45175 7.93301 5.48506 7.505 6.5625 7.505L7.49875 7.50375L7.5 6.5625C7.5 5.81658 7.79632 5.10121 8.32376 4.57376C8.85121 4.04632 9.56658 3.75 10.3125 3.75H19.6912ZM19.6875 16.875H10.3125C10.0639 16.875 9.8254 16.9738 9.64959 17.1496C9.47377 17.3254 9.375 17.5639 9.375 17.8125V23.4375C9.375 23.955 9.795 24.375 10.3125 24.375H19.6875C19.9361 24.375 20.1746 24.2762 20.3504 24.1004C20.5262 23.9246 20.625 23.6861 20.625 23.4375V17.8125C20.625 17.5639 20.5262 17.3254 20.3504 17.1496C20.1746 16.9738 19.9361 16.875 19.6875 16.875ZM23.44 9.38H6.5625C5.98234 9.38 5.42594 9.61047 5.0157 10.0207C4.60547 10.4309 4.375 10.9873 4.375 11.5675V19.0625C4.375 19.58 4.795 20 5.3125 20H7.5V17.8125C7.5 17.0666 7.79632 16.3512 8.32376 15.8238C8.85121 15.2963 9.56658 15 10.3125 15H19.6875C20.4334 15 21.1488 15.2963 21.6762 15.8238C22.2037 16.3512 22.5 17.0666 22.5 17.8125V20H24.7288C24.9715 19.9916 25.2015 19.8893 25.3703 19.7146C25.5391 19.54 25.6336 19.3066 25.6338 19.0638L25.63 11.5675C25.6287 10.9873 25.3974 10.4313 24.987 10.0213C24.5765 9.61126 24.0202 9.38066 23.44 9.38ZM19.69 5.625H10.3125C10.0639 5.625 9.8254 5.72377 9.64959 5.89959C9.47377 6.0754 9.375 6.31386 9.375 6.5625L9.37375 7.50375H20.6275V6.5625C20.6275 6.31386 20.5287 6.0754 20.3529 5.89959C20.1771 5.72377 19.9386 5.625 19.69 5.625Z" fill="black"/>
</svg>
