<svg width="25" height="24" viewBox="0 0 25 24" fill="none" xmlns="http://www.w3.org/2000/svg">
<path fill-rule="evenodd" clip-rule="evenodd" d="M16.207 11.293C16.3944 11.4806 16.4998 11.7349 16.4998 12C16.4998 12.2652 16.3944 12.5195 16.207 12.707L10.55 18.364C10.4577 18.4595 10.3474 18.5357 10.2254 18.5881C10.1034 18.6405 9.97215 18.6681 9.83937 18.6693C9.70659 18.6704 9.57491 18.6451 9.45202 18.5948C9.32912 18.5446 9.21747 18.4703 9.12357 18.3764C9.02968 18.2825 8.95543 18.1709 8.90515 18.048C8.85487 17.9251 8.82956 17.7934 8.83072 17.6606C8.83187 17.5278 8.85946 17.3966 8.91187 17.2746C8.96428 17.1526 9.04046 17.0423 9.13597 16.95L14.086 12L9.13597 7.05002C8.95381 6.86142 8.85302 6.60882 8.85529 6.34662C8.85757 6.08443 8.96274 5.83361 9.14815 5.64821C9.33356 5.4628 9.58437 5.35763 9.84657 5.35535C10.1088 5.35307 10.3614 5.45386 10.55 5.63602L16.207 11.293Z" fill="black"/>
</svg>
