<svg width="25" height="24" viewBox="0 0 25 24" fill="none" xmlns="http://www.w3.org/2000/svg">
<path d="M12.5 20C12.7652 20 13.0196 19.8946 13.2071 19.7071C13.3946 19.5196 13.5 19.2652 13.5 19C13.5 18.7348 13.3946 18.4804 13.2071 18.2929C13.0196 18.1054 12.7652 18 12.5 18C12.2348 18 11.9804 18.1054 11.7929 18.2929C11.6054 18.4804 11.5 18.7348 11.5 19C11.5 19.2652 11.6054 19.5196 11.7929 19.7071C11.9804 19.8946 12.2348 20 12.5 20ZM12.5 13C12.7652 13 13.0196 12.8946 13.2071 12.7071C13.3946 12.5196 13.5 12.2652 13.5 12C13.5 11.7348 13.3946 11.4804 13.2071 11.2929C13.0196 11.1054 12.7652 11 12.5 11C12.2348 11 11.9804 11.1054 11.7929 11.2929C11.6054 11.4804 11.5 11.7348 11.5 12C11.5 12.2652 11.6054 12.5196 11.7929 12.7071C11.9804 12.8946 12.2348 13 12.5 13ZM12.5 6C12.7652 6 13.0196 5.89464 13.2071 5.70711C13.3946 5.51957 13.5 5.26522 13.5 5C13.5 4.73478 13.3946 4.48043 13.2071 4.29289C13.0196 4.10536 12.7652 4 12.5 4C12.2348 4 11.9804 4.10536 11.7929 4.29289C11.6054 4.48043 11.5 4.73478 11.5 5C11.5 5.26522 11.6054 5.51957 11.7929 5.70711C11.9804 5.89464 12.2348 6 12.5 6Z" stroke="black" stroke-width="2" stroke-linecap="round" stroke-linejoin="round"/>
</svg>
